<svg xmlns="http://www.w3.org/2000/svg" viewBox="0 0 320 560">
  <rect width="320" height="560" rx="36" fill="#f9f4ee" />
  <circle cx="160" cy="106" r="54" fill="#f3d1b2" />
  <path d="M106 110 C110 64 210 64 214 110 C214 166 166 184 160 184 C154 184 106 166 106 110 Z" fill="#6a3c24" />
  <ellipse cx="136" cy="114" rx="6" ry="9" fill="#3c2a1f" />
  <ellipse cx="184" cy="114" rx="6" ry="9" fill="#3c2a1f" />
  <path d="M140 138 C153 148 177 148 190 138" stroke="#3c2a1f" stroke-width="4" fill="none" stroke-linecap="round" />
  <path d="M132 152 C142 170 178 170 188 152" fill="#e1aa85" />
  <path d="M96 192 C108 164 132 150 160 150 C188 150 212 164 224 192 L224 316 C214 374 106 374 96 316 Z" fill="#d8a57d" />
  <path d="M104 316 C104 430 216 430 216 316 C216 296 104 296 104 316 Z" fill="#8b5d47" />
  <path d="M112 430 C118 520 136 520 142 430" fill="#f3d1b2" />
  <path d="M188 430 C182 520 164 520 158 430" fill="#f3d1b2" />
  <path d="M118 344 C134 356 186 356 202 344" fill="#d4a683" opacity="0.8" />
  <path d="M126 396 C130 412 190 412 194 396 C194 392 126 392 126 396 Z" fill="#5b4032" />
</svg>
