<svg xmlns="http://www.w3.org/2000/svg" viewBox="0 0 320 560">
  <rect width="320" height="560" rx="36" fill="#f3efe8" />
  <circle cx="160" cy="110" r="56" fill="#d1a07c" />
  <path d="M104 106 C108 66 212 66 216 106 C216 168 170 182 160 182 C150 182 104 168 104 106 Z" fill="#774c37" />
  <ellipse cx="134" cy="112" rx="8" ry="10" fill="#2f241d" />
  <ellipse cx="186" cy="112" rx="8" ry="10" fill="#2f241d" />
  <path d="M146 138 C158 150 176 150 188 138" stroke="#2f241d" stroke-width="4" fill="none" stroke-linecap="round" />
  <path d="M124 160 C132 175 188 175 196 160" fill="#dfb192" />
  <path d="M92 196 C106 164 134 148 160 148 C186 148 214 164 228 196 L228 328 C214 384 106 384 92 328 Z" fill="#cfa27d" />
  <path d="M108 328 C108 430 212 430 212 328 C212 308 108 308 108 328 Z" fill="#5f4a43" />
  <path d="M120 430 C126 522 142 522 148 430" fill="#d1a07c" />
  <path d="M192 430 C186 522 170 522 164 430" fill="#d1a07c" />
  <path d="M118 356 C134 372 186 372 202 356" fill="#b28568" opacity="0.85" />
  <path d="M118 398 C122 410 198 410 202 398 C202 394 118 394 118 398 Z" fill="#4f362a" />
</svg>
